<?xml version="1.0" encoding="iso-8859-1"?>
<!-- Uploaded to: SVG Repo, www.svgrepo.com, Generator: SVG Repo Mixer Tools -->
<svg fill="#000000" height="800px" width="800px" version="1.1" id="Layer_1" xmlns="http://www.w3.org/2000/svg" xmlns:xlink="http://www.w3.org/1999/xlink" 
	 viewBox="0 0 512 512" xml:space="preserve">
<g>
	<g>
		<path d="M464.197,100.873c-15.634-26.597-41.874-43.246-71.945-45.678c-2.725-0.229-5.467-0.338-8.256-0.338
			c-1.71,0-3.365,0.21-5.056,0.293C345.714,19.639,302.258,0,255.995,0s-89.719,19.639-122.944,55.15
			c-1.691-0.082-3.346-0.293-5.056-0.293c-2.789,0-5.531,0.11-8.238,0.329c-30.089,2.441-56.32,19.09-71.954,45.678
			c-16.274,27.666-18.103,61.531-4.891,90.606l26.606,58.533c2.651,5.824,4.581,11.941,5.733,18.194l36.974,199.698
			c4.745,25.554,27.045,44.096,53.029,44.096c19.877,0,38.071-10.862,47.479-28.361l27.173-50.459
			c3.237-6.025,9.262-9.618,16.101-9.618c6.839,0,12.855,3.593,16.101,9.609l27.173,50.459c9.399,17.518,27.593,28.379,47.47,28.379
			c25.984,0,48.283-18.542,53.029-44.105l36.974-199.689c1.152-6.263,3.081-12.379,5.733-18.194l26.606-58.533
			C482.299,162.405,480.471,128.539,464.197,100.873z M255.995,18.286c37.147,0,72.384,14.254,100.763,40.411
			c-19.2,5.339-36.325,16.311-49.481,31.918c-16.421-5.467-33.655-8.329-51.282-8.329c-17.637,0-34.862,2.862-51.282,8.329
			c-13.157-15.607-30.281-26.578-49.481-31.918C183.611,32.539,218.848,18.286,255.995,18.286z M452.439,183.899l-26.606,58.533
			c-3.264,7.168-5.641,14.72-7.067,22.446l-36.974,199.68c-3.136,16.896-17.874,29.157-35.045,29.157
			c-13.138,0-25.161-7.177-31.378-18.743l-27.173-50.469c-6.491-12.032-18.523-19.227-32.201-19.227
			c-13.678,0-25.71,7.186-32.201,19.237l-27.173,50.459c-6.217,11.566-18.24,18.743-31.378,18.743
			c-17.17,0-31.909-12.261-35.045-29.147L93.225,264.878c-1.426-7.726-3.803-15.278-7.067-22.446l-26.606-58.533
			c-10.752-23.653-9.253-51.227,4.005-73.765c12.581-21.385,33.6-34.77,57.701-36.727c2.222-0.174,4.471-0.265,6.738-0.265
			c22.491,0,43.365,8.923,58.761,24.713c-20.818,9.792-39.963,24.009-56.421,42.322l13.605,12.215
			c30.016-33.417,69.815-51.822,112.055-51.822c42.24,0,82.039,18.405,112.055,51.822l13.605-12.215
			c-16.457-18.313-35.602-32.53-56.421-42.331c15.397-15.79,36.261-24.704,58.761-24.704c2.267,0,4.517,0.091,6.757,0.274
			c24.082,1.947,45.102,15.333,57.682,36.718C461.691,132.681,463.191,160.247,452.439,183.899z"/>
	</g>
</g>
<g>
	<g>
		<path d="M319.264,246.857c-4.032-27.968-26.158-50.094-54.126-54.126v-37.303h-18.286v37.303
			c-27.968,4.032-50.094,26.158-54.126,54.126h-37.303v18.286h37.303c4.032,27.968,26.158,50.094,54.126,54.126v37.303h18.286
			v-37.303c27.968-4.032,50.094-26.158,54.126-54.126h37.303v-18.286H319.264z M246.853,300.791
			c-17.883-3.648-32-17.765-35.648-35.648h35.648V300.791z M246.853,246.857h-35.648c3.648-17.883,17.765-32,35.648-35.648V246.857z
			 M265.138,300.791v-35.648h35.648C297.138,283.026,283.022,297.143,265.138,300.791z M265.138,246.857v-35.648
			c17.883,3.648,32,17.765,35.648,35.648H265.138z"/>
	</g>
</g>
</svg>